<svg xmlns="http://www.w3.org/2000/svg" width="16" height="16" viewBox="0 0 900 900" fill="none"><path fill="currentColor" d="M622.037 192.524a10.58 10.58 0 0 1-4.056-2.001 10.573 10.573 0 0 1-3.98-7.89 10.595 10.595 0 0 1 .804-4.452c20.214-49.194 29.134-88.555 14.74-105.033-38.123-43.716-191.004 43.219-239.75 72.663a10.596 10.596 0 0 1-10.841.041 10.576 10.576 0 0 1-4.396-5.07c-20.491-49.089-42.031-83.233-63.865-84.714-57.871-3.96-104.516 165.624-118.17 220.895a10.574 10.574 0 0 1-1.993 4.057 10.572 10.572 0 0 1-7.884 3.977 10.586 10.586 0 0 1-4.447-.802c-49.194-20.215-88.572-29.134-105.033-14.74-43.717 38.123 43.202 191.005 72.644 239.75a10.553 10.553 0 0 1 1.454 4.279 10.573 10.573 0 0 1-6.481 10.958c-49.072 20.491-83.216 42.031-84.715 63.864-3.944 57.871 165.624 104.516 220.913 118.171a10.566 10.566 0 0 1 5.658 3.601 10.57 10.57 0 0 1 2.355 6.281 10.58 10.58 0 0 1-.799 4.442c-20.214 49.194-29.134 88.572-14.739 105.033 38.121 43.717 191.021-43.202 239.767-72.644a10.566 10.566 0 0 1 15.238 5.027c20.489 49.072 42.013 83.216 63.862 84.715 57.871 3.944 104.516-165.624 118.153-220.913a10.603 10.603 0 0 1 9.895-8.021 10.566 10.566 0 0 1 4.449.808c49.193 20.214 88.553 29.116 105.032 14.738 43.718-38.121-43.219-191.022-72.663-239.767a10.602 10.602 0 0 1 1.326-12.655 10.604 10.604 0 0 1 3.703-2.582c49.089-20.49 83.233-42.031 84.714-63.863 3.96-57.871-165.624-104.516-220.895-118.153Zm-66.394-55.478c11.123 19.938-46.196 152.797-88.83 245.724a8.36 8.36 0 0 1-8.239 4.855 8.374 8.374 0 0 1-7.412-6.043c-17.219-60.42-36.899-131.411-57.957-191.675a10.557 10.557 0 0 1 4.924-12.759c52.586-28.721 142.568-66.86 157.514-40.102ZM303.635 153.49c21.953 6.233 75.365 140.709 110.92 236.564a8.364 8.364 0 0 1-2.394 9.249 8.364 8.364 0 0 1-9.504.978c-54.943-30.493-119.013-66.824-176.522-94.546a10.565 10.565 0 0 1-5.528-12.501c16.926-57.44 53.532-148.095 83.028-139.744ZM137.064 343.322c19.921-11.123 152.795 46.197 245.707 88.83a8.369 8.369 0 0 1-1.189 15.652c-60.401 17.219-131.411 36.899-191.675 57.957a10.552 10.552 0 0 1-12.742-4.925c-28.668-52.584-66.876-142.568-40.101-157.514Zm16.443 252.009c6.217-21.953 140.709-75.365 236.564-110.921a8.368 8.368 0 0 1 10.227 11.898c-30.511 54.945-66.842 119.014-94.563 176.507a10.548 10.548 0 0 1-5.229 5.075 10.544 10.544 0 0 1-7.271.468c-57.441-16.822-148.095-53.531-139.728-83.027ZM343.34 761.902c-11.14-19.922 46.197-152.796 88.829-245.707a8.383 8.383 0 0 1 5.713-4.66 8.38 8.38 0 0 1 7.182 1.664 8.371 8.371 0 0 1 2.758 4.184c17.217 60.403 36.898 131.412 57.957 191.675a10.558 10.558 0 0 1-4.942 12.743c-52.568 28.668-142.568 66.875-157.445 40.101h-.052Zm252.009-16.443c-21.971-6.216-75.383-140.709-110.939-236.564a8.37 8.37 0 0 1 11.916-10.228c54.926 30.494 119.014 66.842 176.506 94.563a10.538 10.538 0 0 1 5.527 12.502c-16.909 57.526-53.515 148.094-83.01 139.727Zm166.57-189.834c-19.938 11.141-152.796-46.197-245.724-88.83a8.367 8.367 0 0 1-2.993-12.892 8.378 8.378 0 0 1 4.182-2.759c60.419-17.218 131.41-36.899 191.675-57.958a10.577 10.577 0 0 1 12.758 4.943c28.652 52.568 66.86 142.569 40.102 157.496Zm-16.444-252.009c-6.232 21.971-140.709 75.383-236.562 110.94a8.371 8.371 0 0 1-10.229-11.917c30.495-54.926 66.825-119.012 94.547-176.505a10.555 10.555 0 0 1 12.5-5.528c57.441 16.909 148.096 53.516 139.744 83.01Z"/></svg>
