<svg xmlns="http://www.w3.org/2000/svg" width="16" height="16" viewBox="0 0 24 24">
  <path fill="currentColor" d="M19.514 7.342C19.711 7.862 19.814 8.413 19.816 8.969C19.816 12.494 15.998 14.697 12.946 12.934C11.529 12.116 10.657 10.605 10.657 8.969C10.657 5.646 14.085 3.431 17.115 4.793C15.26 3.373 12.99 2.607 10.655 2.612C4.772 2.614 0.005 7.381 0 13.265C0.002 19.148 4.772 23.918 10.655 23.92C16.538 23.916 21.306 19.147 21.31 13.265C21.312 11.155 20.687 9.095 19.514 7.342ZM14.841 4.666C14.841 8.191 18.657 10.395 21.709 8.632C23.127 7.814 24 6.302 24 4.666C24 1.14 20.184-1.061 17.13 0.699C15.714 1.519 14.841 3.03 14.841 4.666"/>
</svg>
