<?xml version="1.0" standalone="no" ?>
<svg
    version="1.0"
    xmlns="http://www.w3.org/2000/svg"
    width="16"
    height="16"
    viewBox="0 0 1024 1024"
    preserveAspectRatio="xMidYMid meet"
>

<g
        transform="translate(0,1024) scale(0.1,-0.1)"
        fill="currentColor"
        stroke="none"
    >
<path
            d="M6428 6358 c-104 -8 -227 -38 -314 -78 -73 -33 -196 -115 -239 -160
-18 -19 -39 -30 -56 -30 -26 0 -27 1 -18 32 5 18 9 52 9 76 0 34 -6 49 -34 80
l-34 37 -319 3 c-412 3 -383 18 -447 -236 -20 -78 -36 -154 -36 -168 0 -14 -5
-35 -12 -47 -6 -12 -21 -60 -33 -107 l-22 -85 -22 43 c-47 91 -179 184 -310
218 -146 37 -375 34 -536 -7 -203 -51 -365 -175 -443 -339 -68 -143 -109 -304
-114 -445 l-2 -70 -127 5 c-70 3 -125 2 -123 -1 5 -8 -27 -21 -34 -14 -3 3 0
5 7 5 7 0 9 5 6 10 -4 6 -11 8 -16 5 -5 -4 -15 -3 -21 2 -7 4 -17 8 -23 8 -5
0 -10 7 -10 15 0 13 -142 15 -1205 18 -663 1 -1212 -1 -1220 -5 -8 -3 -19 -5
-25 -4 -5 1 1 -8 15 -21 13 -13 29 -22 34 -20 5 2 3 -4 -4 -14 -13 -15 -15
-14 -24 5 -5 13 -15 20 -24 16 -7 -3 -157 -5 -333 -5 l-319 0 0 -2540 0 -2540
5120 0 5120 0 0 2540 0 2540 -685 1 c-377 1 -689 2 -694 3 -16 2 -25 16 -10
16 11 0 11 2 -1 10 -8 5 -10 10 -4 10 5 0 16 -6 23 -12 11 -10 13 -10 7 0 -5
8 1 12 18 12 14 0 27 -1 29 -2 1 -2 13 7 27 20 13 12 30 22 37 22 8 0 11 5 8
10 -3 6 -2 10 2 10 5 0 9 8 9 18 1 9 18 82 38 161 20 79 36 158 36 176 0 42
-38 97 -75 109 -17 6 -31 11 -32 11 -1 1 5 23 13 50 20 68 20 137 -2 169 -27
43 -64 56 -155 56 -73 0 -80 2 -74 18 4 9 9 42 12 72 3 44 0 62 -17 88 -38 61
-57 63 -396 60 l-304 -3 0 38 c0 29 -8 46 -34 75 l-34 37 -313 3 c-215 2 -321
-1 -340 -8 -50 -21 -68 -52 -100 -177 l-31 -121 -28 16 c-16 9 -35 30 -43 47
-23 48 -102 130 -168 174 -132 88 -315 126 -531 109z m296 -148 c43 -11 101
-32 129 -47 67 -37 145 -115 170 -172 41 -92 33 -253 -25 -493 l-21 -88 -275
0 -274 0 4 23 c3 12 22 91 42 175 25 102 36 170 34 205 -3 51 -4 52 -39 61
-57 14 -98 -15 -128 -89 -36 -89 -321 -1238 -328 -1321 -5 -66 -4 -72 18 -88
54 -38 118 -7 159 78 28 58 122 403 113 419 -2 4 -27 7 -54 7 -43 0 -50 3 -46
18 3 9 20 79 38 154 l33 137 75 7 c79 7 558 1 566 -8 3 -3 -58 -260 -136 -572
l-141 -566 -174 0 -174 0 0 29 c0 15 -3 49 -6 74 l-7 46 -61 -55 c-33 -30 -94
-72 -135 -92 -74 -37 -76 -37 -201 -37 -126 0 -126 0 -202 38 -203 100 -254
266 -179 592 66 287 235 944 271 1050 72 215 132 298 289 403 144 97 262 130
462 131 95 1 145 -4 203 -19z m-1046 -37 c-3 -10 -18 -71 -33 -135 l-29 -118
-273 0 c-213 0 -271 3 -268 13 2 6 13 50 25 97 11 46 25 101 31 122 l10 38
271 0 c253 0 270 -1 266 -17z m2240 0 c-3 -10 -18 -71 -33 -135 l-29 -118
-273 0 c-213 0 -271 3 -268 13 2 6 13 50 25 97 11 46 25 101 31 122 l10 38
271 0 c253 0 270 -1 266 -17z m722 -139 c0 -3 -13 -59 -30 -124 -16 -65 -30
-126 -30 -134 0 -13 13 -16 65 -16 45 0 65 -4 65 -12 0 -13 -31 -146 -51 -220
l-10 -38 -72 0 -73 0 -132 -532 c-73 -293 -132 -552 -132 -574 0 -47 11 -54
93 -54 26 0 47 -3 47 -7 0 -5 -15 -66 -33 -138 l-33 -130 -165 -3 c-326 -6
-421 26 -459 155 -17 55 2 146 155 761 69 277 125 508 125 513 0 5 -25 9 -55
9 l-55 0 7 28 c3 15 18 74 33 132 l26 105 59 5 59 5 34 138 34 137 264 0 c145
0 264 -3 264 -6z m-4147 -223 c137 -36 218 -93 257 -183 27 -63 24 -128 -12
-278 l-24 -95 -232 -3 c-143 -1 -232 1 -232 7 0 5 9 47 20 93 35 145 26 178
-49 178 -65 0 -117 -79 -128 -195 -9 -104 10 -126 222 -252 211 -127 273 -191
290 -305 14 -94 -44 -332 -112 -458 -105 -195 -319 -301 -607 -300 -253 1
-438 89 -476 225 -17 61 -8 193 21 318 l22 97 234 0 233 0 -5 -22 c-3 -13 -14
-61 -25 -108 -11 -47 -20 -106 -20 -132 0 -40 4 -50 25 -64 31 -20 85 -12 120
19 32 28 64 120 72 203 8 82 7 82 -202 224 -178 120 -243 177 -277 242 -72
138 33 532 175 650 70 59 97 75 175 105 101 38 184 51 328 52 99 1 149 -4 207
-18z m1087 -20 c0 -7 -408 -1652 -426 -1718 l-6 -23 -269 0 c-173 0 -269 4
-269 10 0 6 97 399 216 875 l216 865 269 0 c148 0 269 -4 269 -9z m2240 -1 c0
-5 -97 -397 -215 -871 -118 -474 -215 -863 -215 -865 0 -2 -121 -4 -270 -4
-174 0 -270 4 -270 10 0 6 97 399 216 875 l216 865 269 0 c166 0 269 -4 269
-10z m1040 -742 c0 -5 -5 -6 -11 -2 -8 4 -9 -1 -4 -17 4 -13 4 -21 0 -17 -4 4
-9 21 -11 39 -3 27 -2 30 11 19 8 -7 15 -17 15 -22z m-8192 4 c2 -7 -5 -12
-15 -11 -12 0 -14 2 -4 6 11 5 11 7 0 15 -12 8 -12 9 0 6 8 -3 17 -10 19 -16z
m1840 -1329 c-311 -2 -824 -2 -1140 0 -315 1 -60 2 567 2 627 0 885 -1 573 -2z
m619 1 c-3 -3 -12 -4 -19 -1 -8 3 -5 6 6 6 11 1 17 -2 13 -5z"
        />
<path
            d="M900 6270 c0 -11 6 -20 14 -20 7 0 16 -9 19 -20 5 -20 12 -20 1803
-18 1731 3 1799 4 1802 21 3 12 -4 20 -17 24 -12 3 -21 12 -21 19 0 12 -274
14 -1800 14 -1793 0 -1800 0 -1800 -20z"
        />
<path
            d="M900 6005 c0 -15 6 -25 14 -25 7 0 16 -9 19 -20 5 -20 12 -20 1334
-18 l1328 3 3 23 c3 17 -2 22 -17 22 -14 0 -21 6 -21 20 0 20 -7 20 -1330 20
l-1330 0 0 -25z"
        />
<path
            d="M737 5713 c-12 -12 -7 -43 7 -43 7 0 16 -9 19 -20 5 -20 12 -20 1323
-18 1248 3 1319 4 1322 21 2 9 -4 20 -14 24 -10 3 -26 15 -35 24 -17 17 -83
18 -1317 19 -714 0 -1302 -3 -1305 -7z"
        />
<path
            d="M1953 5412 c-1265 -2 -1273 -2 -1273 -22 0 -11 6 -20 14 -20 7 0 16
-9 19 -20 5 -20 12 -20 1298 -18 1242 3 1294 4 1297 21 3 12 -4 20 -17 24 -12
3 -21 11 -21 18 0 7 -10 14 -22 16 -13 2 -596 3 -1295 1z"
        />
<path d="M9010 5130 c-12 -7 -10 -9 7 -7 12 0 19 5 17 9 -6 10 -6 10 -24 -2z" />
<path
            d="M3180 5109 c0 -5 5 -7 10 -4 6 3 10 8 10 11 0 2 -4 4 -10 4 -5 0 -10
-5 -10 -11z"
        />
</g>
</svg>
